<svg xmlns="http://www.w3.org/2000/svg" xmlns:xlink="http://www.w3.org/1999/xlink" width="300" zoomAndPan="magnify" viewBox="0 0 224.87999 225" height="300" preserveAspectRatio="xMidYMid meet" version="1.0"><defs><clipPath id="id1"><path d="M 0 23.671875 L 224.761719 23.671875 L 224.761719 104 L 0 104 Z M 0 23.671875 " clip-rule="nonzero"/></clipPath><clipPath id="id2"><path d="M 0 168 L 224.761719 168 L 224.761719 201.328125 L 0 201.328125 Z M 0 168 " clip-rule="nonzero"/></clipPath></defs><g clip-path="url(#id1)"><path fill="#ff0036" d="M 18.59375 78.34375 C 22.160156 78.34375 25.050781 81.234375 25.050781 84.796875 C 25.050781 88.363281 22.160156 91.253906 18.59375 91.253906 C 15.03125 91.253906 12.140625 88.363281 12.140625 84.796875 C 12.140625 81.234375 15.03125 78.34375 18.59375 78.34375 Z M 47.171875 50.769531 C 50.738281 50.769531 53.625 53.660156 53.625 57.226562 C 53.625 60.792969 50.738281 63.683594 47.171875 63.683594 C 43.605469 63.683594 40.714844 60.792969 40.714844 57.226562 C 40.714844 53.660156 43.605469 50.769531 47.171875 50.769531 Z M 62.410156 80.777344 C 65.976562 80.777344 68.867188 83.667969 68.867188 87.234375 C 68.867188 90.796875 65.976562 93.691406 62.410156 93.691406 C 58.84375 93.691406 55.957031 90.796875 55.957031 87.234375 C 55.957031 83.667969 58.84375 80.777344 62.410156 80.777344 Z M 75.324219 50.769531 C 78.886719 50.769531 81.777344 53.660156 81.777344 57.226562 C 81.777344 60.792969 78.886719 63.683594 75.324219 63.683594 C 71.757812 63.683594 68.867188 60.792969 68.867188 57.226562 C 68.867188 53.660156 71.757812 50.769531 75.324219 50.769531 Z M 97.441406 78.34375 C 101.007812 78.34375 103.898438 81.234375 103.898438 84.796875 C 103.898438 88.363281 101.007812 91.253906 97.441406 91.253906 C 93.875 91.253906 90.988281 88.363281 90.988281 84.796875 C 90.988281 81.234375 93.875 78.34375 97.441406 78.34375 Z M 97.441406 34.84375 C 101.007812 34.84375 103.898438 37.734375 103.898438 41.300781 C 103.898438 44.867188 101.007812 47.757812 97.441406 47.757812 C 93.875 47.757812 90.988281 44.867188 90.988281 41.300781 C 90.988281 37.734375 93.875 34.84375 97.441406 34.84375 Z M 110.355469 58.976562 C 113.917969 58.976562 116.8125 61.867188 116.8125 65.429688 C 116.8125 68.996094 113.917969 71.886719 110.355469 71.886719 C 106.789062 71.886719 103.898438 68.996094 103.898438 65.429688 C 103.898438 61.867188 106.789062 58.976562 110.355469 58.976562 Z M 133.109375 34.84375 C 136.675781 34.84375 139.566406 37.734375 139.566406 41.300781 C 139.566406 44.867188 136.675781 47.757812 133.109375 47.757812 C 129.542969 47.757812 126.652344 44.867188 126.652344 41.300781 C 126.652344 37.734375 129.542969 34.84375 133.109375 34.84375 Z M 141.578125 80.777344 C 141.578125 84.34375 138.6875 87.234375 135.121094 87.234375 C 131.554688 87.234375 128.664062 84.34375 128.664062 80.777344 C 128.664062 77.210938 131.554688 74.320312 135.121094 74.320312 C 138.6875 74.320312 141.578125 77.210938 141.578125 80.777344 Z M 159.886719 52.519531 C 163.453125 52.519531 166.339844 55.410156 166.339844 58.976562 C 166.339844 62.539062 163.453125 65.429688 159.886719 65.429688 C 156.320312 65.429688 153.429688 62.539062 153.429688 58.976562 C 153.429688 55.410156 156.320312 52.519531 159.886719 52.519531 Z M 180.945312 78.34375 C 184.511719 78.34375 187.402344 81.234375 187.402344 84.796875 C 187.402344 88.363281 184.511719 91.253906 180.945312 91.253906 C 177.382812 91.253906 174.492188 88.363281 174.492188 84.796875 C 174.492188 81.234375 177.382812 78.34375 180.945312 78.34375 Z M 196.714844 61.410156 C 200.28125 61.410156 203.171875 64.300781 203.171875 67.867188 C 203.171875 71.429688 200.28125 74.320312 196.714844 74.320312 C 193.148438 74.320312 190.261719 71.429688 190.261719 67.867188 C 190.261719 64.300781 193.148438 61.410156 196.714844 61.410156 Z M 4.535156 103.6875 L 220.34375 103.6875 C 222.847656 103.6875 224.851562 101.558594 224.652344 99.0625 C 221.285156 57.027344 172.332031 23.675781 112.441406 23.675781 C 52.546875 23.675781 3.59375 57.027344 0.226562 99.0625 C 0.0273438 101.558594 2.03125 103.6875 4.535156 103.6875 " fill-opacity="1" fill-rule="nonzero"/></g><g clip-path="url(#id2)"><path fill="#ff0036" d="M 220.222656 168.359375 L 4.65625 168.359375 C 2.109375 168.359375 0.0429688 170.421875 0.0429688 172.972656 L 0.0429688 184.839844 C 0.0429688 193.945312 7.421875 201.324219 16.527344 201.324219 L 208.355469 201.324219 C 217.457031 201.324219 224.835938 193.945312 224.835938 184.839844 L 224.835938 172.972656 C 224.835938 170.421875 222.769531 168.359375 220.222656 168.359375 " fill-opacity="1" fill-rule="nonzero"/></g><path fill="#ff0036" d="M 19.367188 137.855469 L 19.367188 151.089844 L 22.9375 151.089844 C 25.554688 151.089844 27.457031 148.300781 27.457031 144.472656 C 27.457031 140.640625 25.554688 137.855469 22.9375 137.855469 Z M 19.367188 119.050781 L 19.367188 129.496094 L 20.796875 129.496094 C 22.9375 129.496094 24.601562 127.058594 24.601562 124.273438 C 24.601562 121.488281 22.9375 119.050781 20.796875 119.050781 Z M 8.425781 110.691406 L 20.796875 110.691406 C 31.738281 110.691406 36.019531 116.960938 36.019531 123.578125 C 36.019531 130.195312 29.359375 132.28125 29.359375 132.28125 L 29.359375 132.980469 C 29.359375 132.980469 38.875 135.066406 38.875 145.863281 C 38.875 152.480469 34.117188 159.445312 22.9375 159.445312 L 8.425781 159.445312 L 8.425781 110.691406 " fill-opacity="1" fill-rule="nonzero"/><path fill="#ff0036" d="M 66.710938 141.335938 L 66.710938 110.691406 L 73.847656 110.691406 L 73.847656 141.335938 C 73.847656 151.785156 67.664062 160.839844 58.625 160.839844 C 49.582031 160.839844 43.394531 151.785156 43.394531 141.335938 L 43.394531 110.691406 L 54.339844 110.691406 L 54.339844 141.335938 C 54.339844 147.605469 57.195312 151.785156 60.527344 151.785156 C 63.855469 151.785156 66.710938 147.605469 66.710938 141.335938 " fill-opacity="1" fill-rule="nonzero"/><path fill="#ff0036" d="M 93.355469 134.371094 C 96.449219 134.371094 98.589844 131.238281 98.589844 126.710938 C 98.589844 122.183594 96.449219 119.050781 93.355469 119.050781 L 91.453125 119.050781 L 91.453125 134.371094 Z M 103.824219 138.203125 L 103.824219 138.898438 L 113.578125 159.445312 L 101.683594 159.445312 L 94.308594 142.730469 L 91.453125 142.730469 L 91.453125 159.445312 L 80.511719 159.445312 L 80.511719 110.691406 L 93.355469 110.691406 C 104.777344 110.691406 110.011719 118.351562 110.011719 126.710938 C 110.011719 135.417969 103.824219 138.203125 103.824219 138.203125 " fill-opacity="1" fill-rule="nonzero"/><path fill="#ff0036" d="M 114.53125 135.066406 C 114.53125 121.140625 122.621094 109.296875 133.800781 109.296875 C 144.03125 109.296875 148.3125 119.746094 148.3125 119.746094 L 144.984375 124.621094 C 144.984375 124.621094 141.414062 118.351562 136.179688 118.351562 C 130.234375 118.351562 125.949219 124.621094 125.949219 135.066406 C 125.949219 145.167969 130.472656 151.785156 136.179688 151.785156 C 137.847656 151.785156 139.511719 150.390625 139.511719 150.390625 L 139.511719 141.335938 L 133.328125 141.335938 L 133.328125 131.585938 L 149.503906 131.585938 L 149.503906 159.445312 L 145.695312 159.445312 L 144.222656 155.964844 L 143.792969 155.964844 C 143.792969 155.964844 140.226562 160.839844 133.800781 160.839844 C 122.621094 160.839844 114.53125 149 114.53125 135.066406 " fill-opacity="1" fill-rule="nonzero"/><path fill="#ff0036" d="M 166.632812 149.695312 L 183.761719 149.695312 L 183.761719 159.445312 L 155.691406 159.445312 L 155.691406 110.691406 L 183.289062 110.691406 L 182.335938 120.441406 L 166.632812 120.441406 L 166.632812 129.496094 L 178.050781 129.496094 L 177.101562 139.25 L 166.632812 139.25 L 166.632812 149.695312 " fill-opacity="1" fill-rule="nonzero"/><path fill="#ff0036" d="M 201.128906 134.371094 C 204.222656 134.371094 206.363281 131.238281 206.363281 126.710938 C 206.363281 122.183594 204.222656 119.050781 201.128906 119.050781 L 199.226562 119.050781 L 199.226562 134.371094 Z M 211.597656 138.203125 L 211.597656 138.898438 L 221.351562 159.445312 L 209.457031 159.445312 L 202.082031 142.730469 L 199.226562 142.730469 L 199.226562 159.445312 L 188.285156 159.445312 L 188.285156 110.691406 L 201.128906 110.691406 C 212.550781 110.691406 217.785156 118.351562 217.785156 126.710938 C 217.785156 135.417969 211.597656 138.203125 211.597656 138.203125 " fill-opacity="1" fill-rule="nonzero"/></svg>